<?xml version="1.0" encoding="UTF-8"?><svg id="Layer_1" xmlns="http://www.w3.org/2000/svg" viewBox="0 0 64 64"><defs><style>.cls-1{fill:#edf2f4;}.cls-2{fill:#ef233c;}.cls-3{fill:#8d99ae;}.cls-4{fill:#a8dadc;}.cls-5{fill:#d90429;}</style></defs><path class="cls-3" d="M24.85,44.86l-17.85,7.14,25,10,25-10-17.85-7.14c-3.81,6.3-7.15,11.14-7.15,11.14,0,0-3.34-4.84-7.15-11.14Z"/><polygon class="cls-4" points="32 59 13 52 32 45 51 52 32 59"/><path class="cls-5" d="M50,20c0,9.94-18,36-18,36,0,0-18-26.06-18-36S22.06,2,32,2s18,8.06,18,18Z"/><circle class="cls-1" cx="32" cy="19" r="10"/><rect class="cls-2" x="31" y="28" width="2" height="2" rx="1" ry="1"/></svg>